<svg height="300px" width="300px" fill="#000000" xmlns="http://www.w3.org/2000/svg" xmlns:xlink="http://www.w3.org/1999/xlink" version="1.1" x="0px" y="0px" viewBox="0 0 100 100" enable-background="new 0 0 100 100" xml:space="preserve"><g display="none"><path display="inline" d="M50.002,32.008c9.916,0,17.989,8.07,17.989,17.992c0,9.92-8.073,17.99-17.989,17.99   c-9.921,0-17.995-8.07-17.995-17.99C32.007,40.078,40.081,32.008,50.002,32.008 M50.002,14.018   C30.13,14.018,14.018,30.127,14.018,50S30.13,85.982,50.002,85.982c19.873,0,35.98-16.109,35.98-35.982   S69.875,14.018,50.002,14.018L50.002,14.018z"/></g><g display="none"><path display="inline" d="M50.463,22.014c-19.869,0-35.984,11.045-35.984,24.674c0,6.475,3.667,12.341,9.612,16.748l-4.027,14.551   l20.54-7.579c3.132,0.612,6.438,0.968,9.859,0.968c19.873,0,35.98-11.05,35.98-24.684C86.443,33.059,70.336,22.014,50.463,22.014z"/></g><g display="none"><rect x="15.21" y="32.138" transform="matrix(0.7071 0.7071 -0.7071 0.7071 47.1313 -19.5224)" display="inline" width="63.843" height="29.986"/><polygon display="inline" points="64.752,85.957 64.842,86.045 85.982,85.98 86.045,64.842 85.957,64.756  "/></g><g><path d="M46.144,36.196h7.716c1.722,0,3.117-1.396,3.119-3.121L61.699,3.12c0-1.723-1.397-3.121-3.12-3.119H41.421   c-1.725,0-3.119,1.396-3.122,3.12l4.725,29.954C43.023,34.798,44.421,36.196,46.144,36.196z"/><circle cx="50.053" cy="53.604" r="10.472"/><path d="M98.108,48.533L66.306,16.729l-2.285,17.557l16.626,16.626L50.006,81.549L19.368,50.912l16.606-16.609l-2.283-17.547   l-31.8,31.801c-1.308,1.305-1.308,3.425,0,4.732l45.73,45.73c1.307,1.307,3.426,1.307,4.733,0l45.753-45.756   C99.416,51.959,99.416,49.839,98.108,48.533z"/></g></svg>