<?xml version="1.0" encoding="iso-8859-1"?>
<!-- Generator: Adobe Illustrator 18.1.1, SVG Export Plug-In . SVG Version: 6.00 Build 0)  -->
<svg version="1.1" id="Capa_1" xmlns="http://www.w3.org/2000/svg" xmlns:xlink="http://www.w3.org/1999/xlink" x="0px" y="0px"
	 viewBox="0 0 269.283 269.283" style="enable-background:new 0 0 269.283 269.283;" xml:space="preserve">
<g>
	<g>
		<path style="fill:#010002;" d="M229.719,78.086c-3.726-4.694-9.48-7.713-15.936-7.713H20.326C9.116,70.373,0,79.462,0,90.639
			V178.6c0,11.199,9.121,20.309,20.326,20.309h193.457c6.505,0,12.319-3.079,16.034-7.854c3.693-4.743,9.034-10.351,14.718-12.287
			c10.943-3.72,24.748-12.858,24.748-35.251v-19.314c0-0.315-0.326-27.223-24.655-34.495
			C238.873,87.99,233.456,82.791,229.719,78.086z M246.265,121.191v26.216c0,6.005-2.725,10.878-6.081,10.878
			c-3.361,0-6.086-4.873-6.086-10.878v-26.14c0-6.005,2.725-10.894,6.086-10.916C243.54,110.329,246.265,115.18,246.265,121.191z
			 M211.068,99.434v70.36c0,3.356-2.725,6.081-6.07,6.081H29.121c-3.345,0-6.07-2.725-6.07-6.081v-70.36
			c0-3.35,2.725-6.075,6.07-6.075h175.878C208.343,93.359,211.068,96.084,211.068,99.434z"/>
	</g>
	<path style="fill:#010002;" d="M36.246,120.565v28.142c0,6.799,5.515,12.319,12.319,12.319h134.573
		c6.804,0,12.319-5.515,12.319-12.319v-28.142c0-6.804-5.515-12.319-12.319-12.319H48.565
		C41.761,108.251,36.246,113.766,36.246,120.565z"/>
</g>
<g>
</g>
<g>
</g>
<g>
</g>
<g>
</g>
<g>
</g>
<g>
</g>
<g>
</g>
<g>
</g>
<g>
</g>
<g>
</g>
<g>
</g>
<g>
</g>
<g>
</g>
<g>
</g>
<g>
</g>
</svg>
