<?xml version="1.0" encoding="iso-8859-1"?>
<!-- Generator: Adobe Illustrator 19.0.0, SVG Export Plug-In . SVG Version: 6.00 Build 0)  -->
<svg version="1.1" id="Layer_1" xmlns="http://www.w3.org/2000/svg" xmlns:xlink="http://www.w3.org/1999/xlink" x="0px" y="0px"
	 viewBox="0 0 512 512" style="enable-background:new 0 0 512 512;" xml:space="preserve">
<g>
	<g>
		<g>
			<path d="M472.178,34.62H39.822C17.829,34.62,0,52.449,0,74.442v45.263c0,3.141,2.547,5.689,5.689,5.689h500.622
				c3.143,0,5.689-2.547,5.689-5.689V74.442C512,52.449,494.171,34.62,472.178,34.62z M71.805,92.844
				c-7.09,0-12.836-5.747-12.836-12.836s5.747-12.836,12.836-12.836c7.089,0,12.836,5.747,12.836,12.836
				C84.642,87.097,78.895,92.844,71.805,92.844z M112.957,92.844c-7.09,0-12.836-5.747-12.836-12.836s5.747-12.836,12.836-12.836
				s12.836,5.747,12.836,12.836C125.794,87.097,120.046,92.844,112.957,92.844z M154.109,92.844
				c-7.089,0-12.836-5.747-12.836-12.836s5.747-12.836,12.836-12.836c7.09,0,12.836,5.747,12.836,12.836
				C166.945,87.097,161.198,92.844,154.109,92.844z"/>
			<path d="M506.311,148.15H5.689c-3.141,0-5.689,2.547-5.689,5.689v283.719c0,21.993,17.829,39.822,39.822,39.822h432.356
				c21.993,0,39.822-17.829,39.822-39.822V153.839C512,150.697,509.454,148.15,506.311,148.15z M178.203,285.633l-19.857,61.278
				c-2.951,9.114-15.237,10.75-20.423,2.601l-15.253-23.976l-15.254,23.978c-5.163,8.11-17.465,6.533-20.423-2.601l-19.855-61.278
				c-4.635-14.298,17.006-21.336,21.646-7.014l12.405,38.286l11.88-18.673c4.462-7.013,14.73-7.026,19.2,0l11.88,18.673
				l12.406-38.287C161.199,264.291,182.837,271.338,178.203,285.633z M311.533,285.633l-19.855,61.278
				c-2.951,9.112-15.236,10.751-20.423,2.601L256,325.538l-15.253,23.976c-5.163,8.11-17.465,6.533-20.423-2.601l-19.855-61.278
				c-4.635-14.298,17.006-21.336,21.646-7.014l12.405,38.286l11.88-18.673c4.462-7.013,14.73-7.026,19.2,0l11.88,18.673
				l12.405-38.286C294.519,264.318,316.175,271.313,311.533,285.633z M444.862,285.633l-19.855,61.278
				c-2.957,9.128-15.258,10.717-20.423,2.601l-15.253-23.976l-15.253,23.976c-5.186,8.148-17.471,6.514-20.423-2.601l-19.857-61.278
				c-4.635-14.3,17.006-21.336,21.646-7.014l12.406,38.287l11.88-18.673c4.462-7.013,14.73-7.026,19.2,0l11.88,18.673l12.405-38.286
				C427.849,264.318,449.504,271.313,444.862,285.633z"/>
		</g>
	</g>
</g>
<g>
</g>
<g>
</g>
<g>
</g>
<g>
</g>
<g>
</g>
<g>
</g>
<g>
</g>
<g>
</g>
<g>
</g>
<g>
</g>
<g>
</g>
<g>
</g>
<g>
</g>
<g>
</g>
<g>
</g>
</svg>
