<svg height="300px" width="300px" fill="#000000" xmlns="http://www.w3.org/2000/svg" xmlns:xlink="http://www.w3.org/1999/xlink" version="1.1" x="0px" y="0px" viewBox="0 0 98 98" style="enable-background:new 0 0 98 98;" xml:space="preserve"><path d="M87,16h-5.9h-2.4H70v-2.2c0-2.8-2.2-5-5-5s-5,2.2-5,5V16H38v-2.2c0-2.8-2.2-5-5-5s-5,2.2-5,5V16H11  c-2.2,0-4,2-4,4.1v64.6C7,87,8.8,89,11,89h76c2.2,0,4-2,4-4.2V20.1C91,18,89.2,16,87,16z M33.2,69h-5.5c-2.2,0-4-1.8-4-4s1.8-4,4-4  h5.5c2.2,0,4,1.8,4,4S35.5,69,33.2,69z M33.2,51h-5.5c-2.2,0-4-1.8-4-4s1.8-4,4-4h5.5c2.2,0,4,1.8,4,4S35.5,51,33.2,51z M70.2,69  H44.8c-2.2,0-4-1.8-4-4s1.8-4,4-4h25.5c2.2,0,4,1.8,4,4S72.5,69,70.2,69z M70.2,51H44.8c-2.2,0-4-1.8-4-4s1.8-4,4-4h25.5  c2.2,0,4,1.8,4,4S72.5,51,70.2,51z"/></svg>