<?xml version="1.0" encoding="iso-8859-1"?>
<!-- Generator: Adobe Illustrator 16.0.0, SVG Export Plug-In . SVG Version: 6.00 Build 0)  -->
<!DOCTYPE svg PUBLIC "-//W3C//DTD SVG 1.1//EN" "http://www.w3.org/Graphics/SVG/1.1/DTD/svg11.dtd">
<svg version="1.1" id="Capa_1" xmlns="http://www.w3.org/2000/svg" xmlns:xlink="http://www.w3.org/1999/xlink" x="0px" y="0px"
	 width="486.281px" height="486.281px" viewBox="0 0 486.281 486.281" style="enable-background:new 0 0 486.281 486.281;"
	 xml:space="preserve">
<g>
	<g>
		<path d="M243.14,86.835c-86.325,0-156.307,69.976-156.307,156.296c0,86.335,69.982,156.317,156.307,156.317
			c86.32,0,156.302-69.981,156.302-156.317C399.442,156.811,329.46,86.835,243.14,86.835z M326.549,263.428H243.14
			c-10.962,0-20.286-9.324-20.286-20.292V128.379c0-10.961,9.324-19.847,20.286-19.847c10.963,0,20.287,8.885,20.287,19.847v94.476
			h63.122c10.957,0,19.853,9.325,19.853,20.282C346.401,254.104,337.506,263.428,326.549,263.428z"/>
		<path d="M243.14,0.006C109.077,0.006,0,109.078,0,243.146c0,134.059,109.077,243.129,243.14,243.129
			c134.064,0,243.141-109.071,243.141-243.129C486.281,109.078,377.204,0.006,243.14,0.006z M243.14,430.864
			c-103.512,0-187.734-84.21-187.734-187.718c0-103.518,84.222-187.733,187.734-187.733c103.513,0,187.729,84.216,187.729,187.733
			C430.87,346.654,346.653,430.864,243.14,430.864z"/>
	</g>
</g>
<g>
</g>
<g>
</g>
<g>
</g>
<g>
</g>
<g>
</g>
<g>
</g>
<g>
</g>
<g>
</g>
<g>
</g>
<g>
</g>
<g>
</g>
<g>
</g>
<g>
</g>
<g>
</g>
<g>
</g>
</svg>
