<?xml version="1.0" encoding="utf-8"?>
<!-- Svg Vector Icons : http://www.onlinewebfonts.com/icon -->
<!DOCTYPE svg PUBLIC "-//W3C//DTD SVG 1.1//EN" "http://www.w3.org/Graphics/SVG/1.1/DTD/svg11.dtd">
<svg version="1.1" xmlns="http://www.w3.org/2000/svg" xmlns:xlink="http://www.w3.org/1999/xlink" x="0px" y="0px" viewBox="0 0 1000 1000" enable-background="new 0 0 1000 1000" xml:space="preserve">
<metadata> Svg Vector Icons : http://www.onlinewebfonts.com/icon </metadata>
<g><path d="M551,387.7c0-28.2-22.9-51-51-51c-28.2,0-51,22.9-51,51c0,28.2,22.9,51,51,51C528.2,438.8,551,415.9,551,387.7L551,387.7z M183.5,10C127.2,10,81.5,55.7,81.5,112.1v775.8c0,56.3,45.7,102.1,102.1,102.1h632.9c56.3,0,102.1-45.7,102.1-102.1V112.1C918.5,55.7,872.8,10,816.5,10L183.5,10L183.5,10z M500,112.1c152.3,0,275.6,123.3,275.6,275.6c0,79.4-33.5,151.1-87.4,201.3c-27.6-20.8-53.3-41.3-68-56.1c-43.9-43.9-114.9-43.9-158.8,0c-33.3,33.3-41.2,82.5-24.1,123.3c-122.1-28.4-212.9-137.8-212.9-268.5C224.4,235.4,347.7,112.1,500,112.1L500,112.1z M183.5,836.9c0-28.2,22.9-51,51-51c28.2,0,51,22.9,51,51c0,28.2-22.9,51-51,51C206.4,887.9,183.5,865.1,183.5,836.9L183.5,836.9z M519.4,590.9c12.3-12.3,32-12.3,44.5,0c7.2,7.3,207.9,148.6,231.1,171.9c28.6,28.8,28.6,75.1,0,103.7c-28.6,28.6-75,28.6-103.7,0C666.8,842,526.1,641.9,519.4,635.4C507.1,622.9,507.1,603.1,519.4,590.9L519.4,590.9z"/></g>
</svg>