<?xml version="1.0" encoding="UTF-8" standalone="no"?>
<svg
   xmlns:dc="http://purl.org/dc/elements/1.1/"
   xmlns:cc="http://creativecommons.org/ns#"
   xmlns:rdf="http://www.w3.org/1999/02/22-rdf-syntax-ns#"
   xmlns:svg="http://www.w3.org/2000/svg"
   xmlns="http://www.w3.org/2000/svg"
   xmlns:sodipodi="http://sodipodi.sourceforge.net/DTD/sodipodi-0.dtd"
   xmlns:inkscape="http://www.inkscape.org/namespaces/inkscape"
   height="256"
   width="256"
   inkscape:version="1.0 (4035a4fb49, 2020-05-01)"
   sodipodi:docname="disk.svg"
   xml:space="preserve"
   viewBox="0 0 256 256"
   y="0px"
   x="0px"
   id="Capa_1"
   version="1.1"><metadata
   id="metadata138"><rdf:RDF><cc:Work
       rdf:about=""><dc:format>image/svg+xml</dc:format><dc:type
         rdf:resource="http://purl.org/dc/dcmitype/StillImage" /><dc:title></dc:title></cc:Work></rdf:RDF></metadata><defs
   id="defs136" /><sodipodi:namedview
   units="px"
   inkscape:current-layer="Capa_1"
   inkscape:window-maximized="1"
   inkscape:window-y="0"
   inkscape:window-x="0"
   inkscape:cy="82.964"
   inkscape:cx="49.531738"
   inkscape:zoom="2.8284271"
   showgrid="false"
   id="namedview134"
   inkscape:window-height="2117"
   inkscape:window-width="3840"
   inkscape:pageshadow="2"
   inkscape:pageopacity="0"
   guidetolerance="10"
   gridtolerance="10"
   objecttolerance="10"
   borderopacity="1"
   bordercolor="#666666"
   pagecolor="#ffffff" />
<g
   transform="matrix(18.717555,0,0,18.717555,-0.01771755,-0.00146395)"
   id="g101">
	<g
   id="g99">
		<path
   id="path93"
   d="M 13.383,1.361 12.408,0.132 C 12.281,-0.026 12.09,0.002 12.09,0.002 H 0.439 c -0.242,0 -0.438,0.195 -0.438,0.437 v 12.802 c 0,0.241 0.196,0.438 0.438,0.438 H 13.24 c 0.242,0 0.438,-0.196 0.438,-0.438 V 12.72 12.636 2.07 c 0,-0.038 0.002,-0.302 -0.295,-0.709 z M 2.298,0.895 h 8.79 v 5.704 h -8.79 c 0,0 0,-5.704 0,-5.704 z m 4.883,10.91 c -1.17,0 -2.12,-0.949 -2.12,-2.119 0,-1.17 0.949,-2.119 2.12,-2.119 1.17,0 2.118,0.949 2.118,2.119 0,1.17 -0.948,2.119 -2.118,2.119 z"
   style="fill:#030104" />
		<path
   id="path95"
   d="M 9.866,5.707 H 7.616 V 1.951 h 2.25 z"
   style="fill:#030104" />
		<path
   id="path97"
   d="m 7.195,8.681 c -0.555,0 -1.003,0.449 -1.003,1.003 0,0.555 0.449,1.003 1.003,1.003 0.553,0 1.002,-0.448 1.002,-1.003 0,-0.554 -0.449,-1.003 -1.002,-1.003 z"
   style="fill:#030104" />
	</g>
</g>
<g
   id="g103">
</g>
<g
   id="g105">
</g>
<g
   id="g107">
</g>
<g
   id="g109">
</g>
<g
   id="g111">
</g>
<g
   id="g113">
</g>
<g
   id="g115">
</g>
<g
   id="g117">
</g>
<g
   id="g119">
</g>
<g
   id="g121">
</g>
<g
   id="g123">
</g>
<g
   id="g125">
</g>
<g
   id="g127">
</g>
<g
   id="g129">
</g>
<g
   id="g131">
</g>
</svg>
