<?xml version="1.0" encoding="iso-8859-1"?>
<!-- Generator: Adobe Illustrator 16.0.0, SVG Export Plug-In . SVG Version: 6.00 Build 0)  -->
<!DOCTYPE svg PUBLIC "-//W3C//DTD SVG 1.1//EN" "http://www.w3.org/Graphics/SVG/1.1/DTD/svg11.dtd">
<svg version="1.1" id="Capa_1" xmlns="http://www.w3.org/2000/svg" xmlns:xlink="http://www.w3.org/1999/xlink" x="0px" y="0px"
	 width="342.382px" height="342.382px" viewBox="0 0 342.382 342.382" style="enable-background:new 0 0 342.382 342.382;"
	 xml:space="preserve">
<g>
	<g>
		<g>
			<path d="M45.225,125.972C20.284,125.972,0,146.256,0,171.191c0,24.94,20.284,45.219,45.225,45.219
				c24.926,0,45.219-20.278,45.219-45.219C90.444,146.256,70.151,125.972,45.225,125.972z"/>
		</g>
		<g>
			<path d="M173.409,125.972c-24.938,0-45.225,20.284-45.225,45.219c0,24.94,20.287,45.219,45.225,45.219
				c24.936,0,45.226-20.278,45.226-45.219C218.635,146.256,198.345,125.972,173.409,125.972z"/>
		</g>
		<g>
			<path d="M297.165,125.972c-24.932,0-45.222,20.284-45.222,45.219c0,24.94,20.29,45.219,45.222,45.219
				c24.926,0,45.217-20.278,45.217-45.219C342.382,146.256,322.091,125.972,297.165,125.972z"/>
		</g>
	</g>
</g>
<g>
</g>
<g>
</g>
<g>
</g>
<g>
</g>
<g>
</g>
<g>
</g>
<g>
</g>
<g>
</g>
<g>
</g>
<g>
</g>
<g>
</g>
<g>
</g>
<g>
</g>
<g>
</g>
<g>
</g>
</svg>
