<?xml version="1.0" encoding="UTF-8" standalone="no"?>
<svg
   xmlns:dc="http://purl.org/dc/elements/1.1/"
   xmlns:cc="http://creativecommons.org/ns#"
   xmlns:rdf="http://www.w3.org/1999/02/22-rdf-syntax-ns#"
   xmlns:svg="http://www.w3.org/2000/svg"
   xmlns="http://www.w3.org/2000/svg"
   xml:space="preserve"
   style="enable-background:new 0 0 297 297;"
   viewBox="0 0 297 297"
   y="0px"
   x="0px"
   id="Capa_1"
   version="1.1"><metadata
   id="metadata41"><rdf:RDF><cc:Work
       rdf:about=""><dc:format>image/svg+xml</dc:format><dc:type
         rdf:resource="http://purl.org/dc/dcmitype/StillImage" /><dc:title></dc:title></cc:Work></rdf:RDF></metadata><defs
   id="defs39" />
<g
   id="g4">
	<path
   id="path2"
   d="m 282.079,284.249 -17.59,-87.946 c -0.996,-4.983 -5.371,-8.57 -10.453,-8.57 h -22.362 c 18.104,-19.948 29.154,-46.407 29.154,-75.404 C 260.828,50.391 210.437,0 148.5,0 86.563,0 36.172,50.391 36.172,112.328 c 0,28.997 11.051,55.456 29.154,75.404 H 42.964 c -5.081,0 -9.457,3.587 -10.453,8.57 l -17.59,87.946 c -0.626,3.132 0.185,6.38 2.209,8.85 2.025,2.47 5.051,3.901 8.244,3.901 h 246.252 c 3.193,0 6.219,-1.432 8.244,-3.901 2.024,-2.469 2.836,-5.717 2.209,-8.849 z M 159.159,48.758 c 0,5.888 -4.773,10.66 -10.66,10.66 -29.174,0 -52.909,23.736 -52.909,52.91 0,5.887 -4.773,10.66 -10.661,10.66 -5.886,0 -10.66,-4.773 -10.66,-10.66 0,-40.93 33.3,-74.23 74.231,-74.23 5.887,0 10.66,4.773 10.659,10.66 z M 38.378,275.68 51.703,209.053 h 193.594 l 13.325,66.627 z" />
</g>
<g
   id="g6">
</g>
<g
   id="g8">
</g>
<g
   id="g10">
</g>
<g
   id="g12">
</g>
<g
   id="g14">
</g>
<g
   id="g16">
</g>
<g
   id="g18">
</g>
<g
   id="g20">
</g>
<g
   id="g22">
</g>
<g
   id="g24">
</g>
<g
   id="g26">
</g>
<g
   id="g28">
</g>
<g
   id="g30">
</g>
<g
   id="g32">
</g>
<g
   id="g34">
</g>
</svg>