<?xml version="1.0" encoding="iso-8859-1"?>
<!-- Generator: Adobe Illustrator 16.0.0, SVG Export Plug-In . SVG Version: 6.00 Build 0)  -->
<!DOCTYPE svg PUBLIC "-//W3C//DTD SVG 1.1//EN" "http://www.w3.org/Graphics/SVG/1.1/DTD/svg11.dtd">
<svg version="1.1" id="Capa_1" xmlns="http://www.w3.org/2000/svg" xmlns:xlink="http://www.w3.org/1999/xlink" x="0px" y="0px"
	 width="530.91px" height="530.91px" viewBox="0 0 530.91 530.91" style="enable-background:new 0 0 530.91 530.91;"
	 xml:space="preserve">
<g>
	<g>
		<path d="M73.762,530.91h383.381c19.076,0,34.541-15.465,34.541-34.541V216.611c0-19.076-15.465-34.542-34.541-34.542h-6.634
			C448.856,81.402,366.506,0,265.452,0C164.399,0,82.048,81.402,80.402,182.07h-6.634c-19.076,0-34.541,15.465-34.541,34.542
			v279.764C39.227,515.445,54.686,530.91,73.762,530.91z M299.008,358.32v83.85c0,16.896-13.702,30.6-30.6,30.6h-5.918
			c-16.897,0-30.6-13.703-30.6-30.6v-83.85c-17.962-11.219-29.958-31.107-29.958-53.85c0-35.074,28.434-63.514,63.513-63.514
			s63.513,28.434,63.513,63.514C328.966,327.213,316.971,347.102,299.008,358.32z M265.452,73.44
			c60.551,0,109.891,48.464,111.537,108.63H153.915C155.562,121.911,204.901,73.44,265.452,73.44z"/>
	</g>
</g>
<g>
</g>
<g>
</g>
<g>
</g>
<g>
</g>
<g>
</g>
<g>
</g>
<g>
</g>
<g>
</g>
<g>
</g>
<g>
</g>
<g>
</g>
<g>
</g>
<g>
</g>
<g>
</g>
<g>
</g>
</svg>
