<?xml version="1.0" encoding="iso-8859-1"?>
<!-- Generator: Adobe Illustrator 16.0.0, SVG Export Plug-In . SVG Version: 6.00 Build 0)  -->
<!DOCTYPE svg PUBLIC "-//W3C//DTD SVG 1.1//EN" "http://www.w3.org/Graphics/SVG/1.1/DTD/svg11.dtd">
<svg version="1.1" id="Capa_1" xmlns="http://www.w3.org/2000/svg" xmlns:xlink="http://www.w3.org/1999/xlink" x="0px" y="0px"
	 width="553.859px" height="553.859px" viewBox="0 0 553.859 553.859" style="enable-background:new 0 0 553.859 553.859;"
	 xml:space="preserve">
<g>
	<g>
		<path d="M397.897,37.46c-18.151-9.015-40.196-1.609-49.217,16.561c-9.021,18.165-1.604,40.196,16.561,49.217
			c68.214,33.868,110.589,102.18,110.589,178.281c0,109.678-89.23,198.9-198.9,198.9c-109.67,0-198.9-89.223-198.9-198.9
			c0-76.114,42.387-144.432,110.619-178.293c18.17-9.015,25.588-31.047,16.573-49.217c-9.015-18.17-31.041-25.576-49.217-16.573
			C62.607,83.789,4.59,177.315,4.59,281.52c0,150.166,122.167,272.34,272.34,272.34c150.173,0,272.34-122.174,272.34-272.34
			C549.27,177.333,491.265,83.819,397.897,37.46z"/>
		<path d="M276.93,345.779c20.275,0,36.72-16.443,36.72-36.719V36.72c0-20.276-16.444-36.72-36.72-36.72s-36.72,16.444-36.72,36.72
			v272.34C240.209,329.336,256.654,345.779,276.93,345.779z"/>
	</g>
</g>
<g>
</g>
<g>
</g>
<g>
</g>
<g>
</g>
<g>
</g>
<g>
</g>
<g>
</g>
<g>
</g>
<g>
</g>
<g>
</g>
<g>
</g>
<g>
</g>
<g>
</g>
<g>
</g>
<g>
</g>
</svg>
