<?xml version="1.0" encoding="UTF-8"?>
<svg xmlns="http://www.w3.org/2000/svg" xmlns:xlink="http://www.w3.org/1999/xlink" width="91.68pt" height="91.68pt" viewBox="0 0 91.68 91.68" version="1.1">
<defs>
<clipPath id="clip1">
  <path d="M 0 11 L 91.679688 11 L 91.679688 66 L 0 66 Z M 0 11 "/>
</clipPath>
</defs>
<g id="surface1">
<path style=" stroke:none;fill-rule:evenodd;fill:rgb(0%,0%,0%);fill-opacity:1;" d="M 6.15625 17.492188 L 85.527344 17.492188 C 87.09375 17.492188 88.363281 18.761719 88.363281 20.328125 L 88.363281 57.179688 C 88.363281 58.742188 87.09375 60.011719 85.527344 60.011719 L 6.15625 60.011719 C 4.589844 60.011719 3.320312 58.742188 3.320312 57.179688 L 3.320312 20.328125 C 3.320312 18.761719 4.589844 17.492188 6.15625 17.492188 Z M 14.660156 25.996094 L 14.660156 51.507812 L 31.667969 51.507812 L 31.667969 25.996094 Z M 37.335938 25.996094 L 37.335938 51.507812 L 54.34375 51.507812 L 54.34375 25.996094 Z M 60.015625 25.996094 L 60.015625 51.507812 L 77.023438 51.507812 L 77.023438 25.996094 Z M 60.015625 25.996094 "/>
<g clip-path="url(#clip1)" clip-rule="nonzero">
<path style="fill:none;stroke-width:0.3985;stroke-linecap:butt;stroke-linejoin:miter;stroke:rgb(0%,0%,0%);stroke-opacity:1;stroke-miterlimit:10;" d="M 2.83525 0.0008125 L 82.206344 0.0008125 C 83.77275 0.0008125 85.042281 -1.268719 85.042281 -2.835125 L 85.042281 -39.686688 C 85.042281 -41.249188 83.77275 -42.518719 82.206344 -42.518719 L 2.83525 -42.518719 C 1.268844 -42.518719 -0.0006875 -41.249188 -0.0006875 -39.686688 L -0.0006875 -2.835125 C -0.0006875 -1.268719 1.268844 0.0008125 2.83525 0.0008125 Z M 11.339156 -8.503094 L 11.339156 -34.014813 L 28.346969 -34.014813 L 28.346969 -8.503094 Z M 34.014938 -8.503094 L 34.014938 -34.014813 L 51.02275 -34.014813 L 51.02275 -8.503094 Z M 56.694625 -8.503094 L 56.694625 -34.014813 L 73.702438 -34.014813 L 73.702438 -8.503094 Z M 56.694625 -8.503094 " transform="matrix(1,0,0,-1,3.321,17.493)"/>
</g>
<path style="fill-rule:nonzero;fill:rgb(0%,0%,0%);fill-opacity:1;stroke-width:0.3985;stroke-linecap:butt;stroke-linejoin:miter;stroke:rgb(0%,0%,0%);stroke-opacity:1;stroke-miterlimit:10;" d="M 5.671188 -41.104656 L 28.346969 -41.104656 L 28.346969 -52.440594 C 28.346969 -54.007 27.077438 -55.276531 25.511031 -55.276531 L 8.503219 -55.276531 C 6.936813 -55.276531 5.671188 -54.007 5.671188 -52.440594 Z M 5.671188 -41.104656 " transform="matrix(1,0,0,-1,3.321,17.493)"/>
<path style="fill-rule:nonzero;fill:rgb(0%,0%,0%);fill-opacity:1;stroke-width:0.3985;stroke-linecap:butt;stroke-linejoin:miter;stroke:rgb(0%,0%,0%);stroke-opacity:1;stroke-miterlimit:10;" d="M 34.014938 -41.104656 L 79.370406 -41.104656 L 79.370406 -52.440594 C 79.370406 -54.007 78.100875 -55.276531 76.538375 -55.276531 L 36.850875 -55.276531 C 35.284469 -55.276531 34.014938 -54.007 34.014938 -52.440594 Z M 34.014938 -41.104656 " transform="matrix(1,0,0,-1,3.321,17.493)"/>
</g>
</svg>
