<svg height="300px" width="300px" fill="#000000" xmlns="http://www.w3.org/2000/svg" xmlns:xlink="http://www.w3.org/1999/xlink" xml:space="preserve" version="1.1" style="shape-rendering:geometricPrecision;text-rendering:geometricPrecision;image-rendering:optimizeQuality;" viewBox="0 0 8467 8467" x="0px" y="0px" fill-rule="evenodd" clip-rule="evenodd"><defs><style type="text/css">
   
    .fil0 {fill:#000000}
   
  </style></defs><g><path class="fil0" d="M2203 1797l1421 0c111,0 203,92 203,203l0 1421c0,180 -218,271 -345,143l-438 -438c-279,301 -435,698 -435,1107 0,808 460,1260 1145,1552 45,16 73,47 73,95l0 631c0,75 -63,116 -123,102 -1127,-273 -1907,-1209 -1907,-2380 0,-622 247,-1227 673,-1678l-410 -412c-127,-128 -37,-346 143,-346z"/><path class="fil0" d="M4763 1880c1123,269 1907,1196 1907,2366 0,619 -245,1218 -673,1669l409 409c128,128 37,346 -142,346l-1422 0c-111,0 -203,-92 -203,-203l0 -1421c0,-180 219,-271 346,-143l435 435c279,-299 438,-695 438,-1104 0,-808 -461,-1260 -1146,-1552 -44,-15 -73,-47 -73,-95l0 -609c0,-63 74,-105 124,-98z"/></g></svg>