<svg height="300px" width="300px" fill="#000000" xmlns="http://www.w3.org/2000/svg" xmlns:xlink="http://www.w3.org/1999/xlink" viewBox="0 0 68 68" version="1.1" x="0px" y="0px"><title>waffle, dough, patterned, food, iron, batter</title><desc>Created with Sketch.</desc><g stroke="none" stroke-width="1" fill="none" fill-rule="evenodd"><g transform="translate(-416.000000, -776.000000)" fill="#000000" fill-rule="nonzero"><path d="M437.654384,780.825957 C438.882914,777.986653 441.709453,776 445,776 L455,776 C458.290547,776 461.117086,777.986653 462.345616,780.825957 L463.343146,779.828427 C466.46734,776.704233 471.53266,776.704233 474.656854,779.828427 L480.171573,785.343146 C483.295767,788.46734 483.295767,793.53266 480.171573,796.656854 L479.174043,797.654384 C482.013347,798.882914 484,801.709453 484,805 L484,815 C484,818.290547 482.013347,821.117086 479.174043,822.345616 L480.171573,823.343146 C483.295767,826.46734 483.295767,831.53266 480.171573,834.656854 L474.656854,840.171573 C471.53266,843.295767 466.46734,843.295767 463.343146,840.171573 L462.345616,839.174043 C461.117086,842.013347 458.290547,844 455,844 L445,844 C441.709453,844 438.882914,842.013347 437.654384,839.174043 L436.656854,840.171573 C433.53266,843.295767 428.46734,843.295767 425.343146,840.171573 L419.828427,834.656854 C416.704233,831.53266 416.704233,826.46734 419.828427,823.343146 L420.825957,822.345616 C417.986653,821.117086 416,818.290547 416,815 L416,805 C416,801.709453 417.986653,798.882914 420.825957,797.654384 L419.828427,796.656854 C416.704233,793.53266 416.704233,788.46734 419.828427,785.343146 L425.343146,779.828427 C428.46734,776.704233 433.53266,776.704233 436.656854,779.828427 L437.654384,780.825957 Z M438,807.171573 L433.414214,802.585786 C432.633165,801.804738 431.366835,801.804738 430.585786,802.585786 C429.804738,803.366835 429.804738,804.633165 430.585786,805.414214 L435.171573,810 L430.585786,814.585786 C429.804738,815.366835 429.804738,816.633165 430.585786,817.414214 C431.366835,818.195262 432.633165,818.195262 433.414214,817.414214 L438,812.828427 L447.171573,822 L442.585786,826.585786 C441.804738,827.366835 441.804738,828.633165 442.585786,829.414214 C443.366835,830.195262 444.633165,830.195262 445.414214,829.414214 L450,824.828427 L454.585786,829.414214 C455.366835,830.195262 456.633165,830.195262 457.414214,829.414214 C458.195262,828.633165 458.195262,827.366835 457.414214,826.585786 L452.828427,822 L462,812.828427 L466.585786,817.414214 C467.366835,818.195262 468.633165,818.195262 469.414214,817.414214 C470.195262,816.633165 470.195262,815.366835 469.414214,814.585786 L464.828427,810 L469.414214,805.414214 C470.195262,804.633165 470.195262,803.366835 469.414214,802.585786 C468.633165,801.804738 467.366835,801.804738 466.585786,802.585786 L462,807.171573 L452.828427,798 L457.414214,793.414214 C458.195262,792.633165 458.195262,791.366835 457.414214,790.585786 C456.633165,789.804738 455.366835,789.804738 454.585786,790.585786 L450,795.171573 L445.414214,790.585786 C444.633165,789.804738 443.366835,789.804738 442.585786,790.585786 C441.804738,791.366835 441.804738,792.633165 442.585786,793.414214 L447.171573,798 L438,807.171573 Z M440.828427,810 L450,800.828427 L459.171573,810 L450,819.171573 L440.828427,810 Z"/></g></g></svg>